<svg id="Layer_1" data-name="Layer 1" xmlns="http://www.w3.org/2000/svg" xmlns:xlink="http://www.w3.org/1999/xlink" viewBox="0 0 450 253.116"><defs><linearGradient id="linear-gradient" x1="152.137" y1="242.621" x2="152.899" y2="-41.178" gradientUnits="userSpaceOnUse"><stop offset="0.474" stop-color="#faf9f8"></stop><stop offset="1" stop-color="#fff"></stop></linearGradient><clipPath id="clip-path"><path d="M261.171,51.934a.5.5,0,0,1,.5-.5h11a.5.5,0,0,1,.4.8l-2.776,3.7,2.776,3.7a.5.5,0,0,1-.4.8h-10.5V63.6a.5.5,0,0,1-.432.5l-.068,0a.5.5,0,0,1-.5-.5Z" style="fill:none;clip-rule:evenodd"></path></clipPath><clipPath id="clip-path-2"><rect x="259.171" y="49.436" width="15.995" height="15.995" style="fill:none"></rect></clipPath><clipPath id="clip-path-3"><path d="M260.992,97.51a.431.431,0,0,1,.431-.431h9.494a.431.431,0,0,1,.345.69l-2.395,3.193,2.395,3.194a.431.431,0,0,1-.345.69h-9.062v2.732a.433.433,0,0,1-.373.428l-.059,0a.432.432,0,0,1-.431-.432Z" style="fill:none;clip-rule:evenodd"></path></clipPath><clipPath id="clip-path-4"><rect x="259.266" y="95.355" width="13.806" height="13.806" style="fill:none"></rect></clipPath><clipPath id="clip-path-5"><path d="M260.992,135.687a.431.431,0,0,1,.431-.431h9.494a.431.431,0,0,1,.345.69l-2.395,3.193,2.395,3.193a.431.431,0,0,1-.345.691h-9.062v2.733a.432.432,0,0,1-.373.427l-.059,0a.431.431,0,0,1-.431-.431Z" style="fill:none;clip-rule:evenodd"></path></clipPath><clipPath id="clip-path-6"><rect x="259.266" y="133.531" width="13.806" height="13.806" style="fill:none"></rect></clipPath><clipPath id="clip-path-7"><path d="M266.888,87.776c0,40.991,14.873,82.546,119.454,79.543C462.1,165.143,445.7,136.533,445.7,95.542s-18.371-76.665-59.362-76.665S266.888,46.785,266.888,87.776Z" style="fill:none"></path></clipPath><radialGradient id="radial-gradient" cx="-5800.556" cy="60.024" r="13.369" gradientTransform="translate(6172.2)" gradientUnits="userSpaceOnUse"><stop offset="0" stop-color="#9b643d"></stop><stop offset="1" stop-color="#bf8f68" stop-opacity="0"></stop></radialGradient><radialGradient id="radial-gradient-2" cx="-5808.303" cy="140.033" r="9.243" gradientTransform="translate(6021.27 1.917) rotate(0.723) scale(0.972 0.876)" xlink:href="#radial-gradient"></radialGradient><linearGradient id="linear-gradient-2" x1="336.292" y1="107.93" x2="367.65" y2="82.106" gradientUnits="userSpaceOnUse"><stop offset="0" stop-color="#116fbf"></stop><stop offset="0.419" stop-color="#2b88d8"></stop></linearGradient><linearGradient id="linear-gradient-3" x1="436.182" y1="168.453" x2="372.619" y2="117.394" gradientUnits="userSpaceOnUse"><stop offset="0" stop-color="#116fbf"></stop><stop offset="0.429" stop-color="#106ebe"></stop><stop offset="0.874" stop-color="#2b88d8"></stop></linearGradient></defs><rect x="10.565" y="6.69" width="283.8" height="227.67" rx="9.481" style="fill:url(#linear-gradient)"></rect><rect x="79.143" y="38.858" width="215.08" height="40.393" style="fill:#c7e0f4;fill-opacity:0.46000000834465"></rect><path d="M20.046,6.69H284.885a9.481,9.481,0,0,1,9.481,9.481V31.364a0,0,0,0,1,0,0H10.565a0,0,0,0,1,0,0V16.171A9.481,9.481,0,0,1,20.046,6.69Z" style="fill:#b3afab"></path><path d="M10.7,31.346h68.2a0,0,0,0,1,0,0V234.36a0,0,0,0,1,0,0H19.649a8.953,8.953,0,0,1-8.953-8.953V31.346A0,0,0,0,1,10.7,31.346Z" style="fill:#e1dfdd"></path><path d="M20.046,6.69H45.712a0,0,0,0,1,0,0V31.364a0,0,0,0,1,0,0H10.565a0,0,0,0,1,0,0V16.171A9.481,9.481,0,0,1,20.046,6.69Z" style="fill:#b3afab"></path><rect x="29.975" y="43.73" width="25.18" height="12.121" style="fill:#b3afab"></rect><rect x="91.015" y="48.451" width="25.18" height="12.121" style="fill:#65aee5"></rect><rect x="29.975" y="69.359" width="25.18" height="12.121" style="fill:#b3afab"></rect><rect x="29.975" y="94.989" width="25.18" height="12.121" style="fill:#b3afab"></rect><rect x="125.969" y="48.428" width="113.977" height="9.003" style="fill:#65aee5"></rect><rect x="125.969" y="60.875" width="47.264" height="9.003" style="fill:#65aee5"></rect><path d="M267.314,40.617a1.674,1.674,0,0,0,.929,1.866h0a1.626,1.626,0,0,0,.374.125,1.685,1.685,0,0,0,1.989-1.3l.859-4.106a1.685,1.685,0,0,0-1.09-1.932,1.766,1.766,0,0,0-.213-.058,1.686,1.686,0,0,0-1.99,1.3Z" style="fill:#ee8f94"></path><path d="M277.432,47.587a1.7,1.7,0,0,0,.458.319,1.673,1.673,0,0,0,1.924-.35l2.775-2.857a1.679,1.679,0,0,0-.034-2.375,1.648,1.648,0,0,0-.625-.387,1.689,1.689,0,0,0-.572-.092,1.672,1.672,0,0,0-1.183.511L277.4,45.214a1.681,1.681,0,0,0,.032,2.373Z" style="fill:#ee8f94"></path><path d="M281.15,54.57a1.681,1.681,0,0,0,1.665,1.7l3.983.039a1.685,1.685,0,0,0,1.546-2.383,1.688,1.688,0,0,0-.328-.476,1.67,1.67,0,0,0-1.186-.505l-3.983-.039a1.682,1.682,0,0,0-1.7,1.66Z" style="fill:#ee8f94"></path><path d="M243.908,56.639a1.678,1.678,0,0,0,1.664,1.7l3.983.039a1.682,1.682,0,1,0,.032-3.364l-3.983-.039a1.68,1.68,0,0,0-1.7,1.66Z" style="fill:#ee8f94"></path><path d="M256.985,43.325a1.682,1.682,0,1,0,3-1.529l-2.033-3.989a1.682,1.682,0,0,0-3,1.532Z" style="fill:#ee8f94"></path><path d="M246.547,47.96l3.941,2.432a1.7,1.7,0,0,0,.161.088l0,0a1.687,1.687,0,0,0,2.146-.638,1.683,1.683,0,0,0-.546-2.315L248.316,45.1a1.736,1.736,0,0,0-.343-.163,1.684,1.684,0,0,0-1.426,3.026Z" style="fill:#ee8f94"></path><circle cx="267.171" cy="57.766" r="12.069" style="fill:#e3646a"></circle><g style="clip-path:url(#clip-path)"><g style="clip-path:url(#clip-path-2)"><rect x="254.506" y="48.102" width="18.665" height="19.329" style="fill:#fff"></rect></g></g><rect x="91.015" y="96.484" width="25.18" height="12.121" style="fill:#b3afab"></rect><rect x="125.617" y="96.484" width="114.287" height="12.121" style="fill:#b3afab"></rect><circle cx="266.171" cy="102.544" r="10.417" style="fill:#b3afab"></circle><g style="clip-path:url(#clip-path-3)"><g style="clip-path:url(#clip-path-4)"><rect x="255.239" y="94.203" width="16.11" height="16.683" style="fill:#fff"></rect></g></g><rect x="91.015" y="132.614" width="25.18" height="12.121" style="fill:#b3afab"></rect><rect x="125.969" y="132.592" width="113.977" height="9.003" style="fill:#b3afab"></rect><rect x="125.969" y="145.038" width="47.264" height="9.003" style="fill:#b3afab"></rect><circle cx="266.171" cy="140.721" r="10.417" style="fill:#b3afab"></circle><g style="clip-path:url(#clip-path-5)"><g style="clip-path:url(#clip-path-6)"><rect x="255.239" y="132.379" width="16.11" height="16.683" style="fill:#fff"></rect></g></g><g style="clip-path:url(#clip-path-7)"><path d="M365.2,71.587c11.7,9.127,25.8.482,25.8.482a7.6,7.6,0,0,1-2.11-4.938c-.262-3.938-.135-16.954-.135-16.954s-23.948-10.336-21.932-.6c1.867,9.012,1.8,16.9.448,20.411C366.674,71.546,365.3,71.712,365.2,71.587Z" style="fill:#e0bb95"></path><path d="M365.2,71.587s4,3.133,12.627,3.133S391,72.069,391,72.069a7.6,7.6,0,0,1-2.11-4.938c-.262-3.938-.135-16.954-.135-16.954s-23.948-10.336-21.932-.6c1.867,9.012,1.8,16.9.448,20.411A2.419,2.419,0,0,1,365.2,71.587Z" style="fill:url(#radial-gradient)"></path><path d="M370.742,43.861a1.618,1.618,0,0,1,.849-.812A1.923,1.923,0,0,1,372.8,43a2.412,2.412,0,0,1,1.016.614,2.294,2.294,0,0,1,.575,1,.079.079,0,0,1-.055.1.082.082,0,0,1-.088-.036,2.791,2.791,0,0,0-1.566-1.261,1.672,1.672,0,0,0-1.807.527.078.078,0,0,1-.13-.084Z" style="fill:#5d4134"></path><path d="M360.479,43.861a1.618,1.618,0,0,1,.849-.812A1.923,1.923,0,0,1,362.534,43a2.412,2.412,0,0,1,1.016.614,2.294,2.294,0,0,1,.575,1,.079.079,0,0,1-.055.1.082.082,0,0,1-.088-.036,2.791,2.791,0,0,0-1.566-1.261,1.672,1.672,0,0,0-1.807.527.078.078,0,0,1-.13-.084Z" style="fill:#5d4134"></path><path d="M365.222,34.159H387.5a3.383,3.383,0,0,1,3.383,3.383V46.8a3.383,3.383,0,0,1-3.383,3.383H367.7a2.476,2.476,0,0,1-2.476-2.476V34.159a0,0,0,0,1,0,0Z" transform="translate(755.862 86.44) rotate(-179.682)" style="fill:#9b643d"></path><circle cx="386.995" cy="51.729" r="4.593" style="fill:#e0bb95"></circle><path d="M366.681,38.4h15.346a5.088,5.088,0,0,1,5.088,5.088V68.136a0,0,0,0,1,0,0H362.7a2.743,2.743,0,0,1-2.743-2.743V45.125a6.721,6.721,0,0,1,6.721-6.721Z" transform="translate(746.773 108.612) rotate(-179.682)" style="fill:#e0bb95"></path><path d="M363.915,37.168h17.074a2.443,2.443,0,0,1,2.443,2.443V54.2a1.953,1.953,0,0,1-1.953,1.953H361.3a.917.917,0,0,1-.917-.917V40.7a3.529,3.529,0,0,1,3.529-3.529Z" transform="matrix(-1, -0.006, 0.006, -1, 743.554, 95.38)" style="fill:#e0bb95"></path><path d="M365.445,39.246a49.15,49.15,0,0,1,10.851-1.49,53.1,53.1,0,0,1,11.093.769l-.06-1.818c-.135-4.121-2.68-7.936-7.706-7.216-7.714,1.106-6.051-1.133-9.369-1.33-3.149-.187-3.832,2.929-5.148,2.963-3.2.083-2.612-4.1-7.4-2.95C353.645,29.148,351.355,42.766,365.445,39.246Z" style="fill:#9b643d"></path><ellipse cx="375.536" cy="49.396" rx="1.818" ry="0.985" transform="translate(324.057 424.652) rotate(-89.682)" style="fill:#605d5a"></ellipse><path d="M359.978,67.083l10.962.048,0-9.623a1.5,1.5,0,0,0-.677-1.257L368.1,54.824a1.029,1.029,0,0,1-.3-1.416l1.883-2.924a4.344,4.344,0,0,0,.692-2.337l.04-10.313-10.962-.048Z" style="fill:url(#radial-gradient-2)"></path><path d="M388.046,37.6s-8.039-1.488-7.462,4.246a5.979,5.979,0,0,0,3.772,5.411c.964,0,3.942.075,3.942.075Z" style="fill:#9b643d"></path><ellipse cx="365.732" cy="49.342" rx="1.818" ry="0.985" transform="translate(314.362 414.795) rotate(-89.682)" style="fill:#605d5a"></ellipse><g style="opacity:0.7000000000000001"><path d="M375.715,57.982a3.994,3.994,0,0,1-2.693,2.544,4.232,4.232,0,0,1-1.923.13,3.3,3.3,0,0,1-1.722-.8.167.167,0,0,1,.169-.279l.006,0a5.015,5.015,0,0,0,1.622.292,5.491,5.491,0,0,0,1.585-.225,5.318,5.318,0,0,0,1.447-.681,5.938,5.938,0,0,0,1.219-1.135.166.166,0,0,1,.234-.028A.17.17,0,0,1,375.715,57.982Z" style="fill:#bf8f68"></path></g><path d="M376.477,54.846h-.016a5.629,5.629,0,0,1,.015-11.258h.014a5.629,5.629,0,0,1-.013,11.258Zm0-9.937a4.308,4.308,0,0,0-.012,8.615h.012a4.308,4.308,0,0,0,.01-8.615Z" style="fill:#2b88d8"></path><path d="M364.173,54.807h-.013a5.63,5.63,0,0,1,.014-11.259h.014a5.63,5.63,0,0,1-.015,11.259Zm0-9.937a4.308,4.308,0,0,0-.011,8.616h.01a4.308,4.308,0,0,0,.012-8.616Z" style="fill:#2b88d8"></path><rect x="369.669" y="46.795" width="1.322" height="2.338" transform="translate(321.322 418.158) rotate(-89.839)" style="fill:#2b88d8"></rect><polygon points="386.284 48.395 381.218 48.395 381.218 47.073 388.212 47.252 386.284 48.395" style="fill:#2b88d8"></polygon><path d="M322.9,108.606s-2.7,6.15-5.75,4.93c-4.056-1.623-10.513-8.85-17-25.634a.6.6,0,0,0-.853-.311l-5.149,2.942s9.858,44.362,22.181,45.183S341.8,123.394,341.8,123.394Z" style="fill:#e0bb95"></path><polygon points="324.547 105.32 342.037 119.521 338.513 122.572 322.904 108.606 324.547 105.32" style="fill:#e0bb95"></polygon><path d="M333.584,88.89c-3.286,5.751-9.037,16.43-9.037,16.43l16.43,13.145c.633-1.308,6.532-2.316,8.085-4.525a19.622,19.622,0,0,1,4.484-.158q1.338.079,4.17.433,2.163-.236,4.012-3.54a31.78,31.78,0,0,0,2.911-8.5,36.447,36.447,0,0,0,.078-12.076q-.51-4.091-2.91-16.207C346.728,73.281,338.513,79.032,333.584,88.89Z" style="fill:url(#linear-gradient-2)"></path><path d="M362.548,73.762l37,.535a17.776,17.776,0,0,1,12.942,6.659q5.193,6.278,5.546,16.186a33.288,33.288,0,0,1-4.72,18.419c-3.69,3.875-5.747,18.449-5.792,43.753a3.029,3.029,0,0,1-1.671,2.756c-30.339,14.214-49.278,11.609-63.176.24a5.607,5.607,0,0,1-2-4.362,185.459,185.459,0,0,0-2.38-26.076q-3.414-21.7-.275-40.083c1.206-6.21,3.275-9.583,7.156-13.32C349.032,74.788,357.382,73.453,362.548,73.762Z" style="fill:url(#linear-gradient-3)"></path><path d="M376.764,82.369l.141-3.972,1.652-6.757,16.666-1.275v7.987Z" style="fill:#2b88d8"></path><path d="M361.679,69.567l13.465,1.377,1.848,6.934-.3,3.814-15.016-3.939Z" style="fill:#2b88d8"></path><path d="M414.913,116.822l21.36-9.859c4.107,9.859,7.73,19.465,4.929,25.467-5.751,12.323-22.644,24.794-34.145,25.615l2.106-9.184c6.155-.932,13.817-9.7,13.966-17.252C423.247,125.6,419.126,121,414.913,116.822Z" style="fill:#e0bb95"></path><path d="M436.273,106.963l-21.36,9.859c.2-1.6-12.341-10.753-14.229-10.517-1.443-.157-5.665-10.821-5.035-15.8q.512-4.091,2.911-16.206C413.114,73.823,431.344,94.641,436.273,106.963Z" style="fill:#2b88d8"></path><path d="M410.806,112.714l4.107,4.108,21.36-9.859c.1-.157-2.465-4.929-2.465-4.929Z" style="fill:#2b88d8"></path><path d="M409.693,148.939l-.185-.188c-.877-.673-5.288-5.7-6.535-6.224-1.824-.85-3.162.234-4.834.83-3.2,1.142-7.31,3.647-6.148,5.249.378.522,1.522-.476,3-1.052,1.852-.721,4.013-1.632,3.877-1.4-.205.351-9.35,4.6-8.826,6.348.516,1.72,2.876.36,2.876.36s-2.171,1.883-.89,3.2c1.2,1.233,6.11-1.164,6.11-1.164s6.3,4.721,9.443,3.147C408.317,157.678,410.959,153.014,409.693,148.939Z" style="fill:#e0bb95"></path><path d="M287,74.848l-3.87,2.1a1.68,1.68,0,0,0-.848,1.156l-.8,4.087a.72.72,0,0,0,.571.844l4.942.948,3.251-3.638-1.626-4.954Z" style="fill:#bf8f68"></path><path d="M290.639,90.329a6.709,6.709,0,0,0,5.17,1.106l4.171-3.787L292.728,74.6a2.5,2.5,0,0,0-1.588-1.176l-6.972-1.634c-.782-.115-5.041-1.649-5.041-1.649-.864,0-.9,1.636.16,2.047s7.068,2.988,8.274,3.389a1.258,1.258,0,0,1,.8.8l1.174,3.575c.195.592-.042.931-.573,1.259l-1.02.63a1.352,1.352,0,0,1-1.4.01c-1.61-.963-5.466-2.825-5.649-1.663-.2,1.268.31,2.322,6.106,6.219A18.059,18.059,0,0,0,290.639,90.329Z" style="fill:#e0bb95"></path></g><rect x="214.158" y="160.147" width="222.538" height="37.77" rx="4.153" style="fill:#c0e4f9"></rect><path d="M416.321,183.38a1.321,1.321,0,0,1-.76-.244,1.387,1.387,0,0,1-.565-1.37l.529-3.226-2.241-2.282a1.4,1.4,0,0,1-.325-1.432,1.35,1.35,0,0,1,1.076-.917l3.078-.467,1.381-2.922a1.333,1.333,0,0,1,1.211-.779h0a1.333,1.333,0,0,1,1.211.779l1.381,2.922,3.078.467a1.35,1.35,0,0,1,1.076.917,1.4,1.4,0,0,1-.325,1.431l-2.242,2.283.53,3.226a1.386,1.386,0,0,1-.564,1.369,1.306,1.306,0,0,1-1.4.079l-2.747-1.508-2.748,1.509A1.317,1.317,0,0,1,416.321,183.38Zm3.384-12.59a.284.284,0,0,0-.262.178l-1.62,3.427-3.63.551a.3.3,0,0,0-.239.213.359.359,0,0,0,.079.364l2.613,2.661-.615,3.752a.34.34,0,0,0,.135.343.26.26,0,0,0,.285.017l3.254-1.787,3.252,1.786a.259.259,0,0,0,.287-.017.34.34,0,0,0,.135-.342l-.616-3.752,2.614-2.661a.356.356,0,0,0,.078-.364.3.3,0,0,0-.238-.213l-3.63-.551-1.62-3.427A.283.283,0,0,0,419.705,170.79Z" style="fill:#65aee5"></path><path d="M230.106,182.331a6.295,6.295,0,1,1,6.3-6.295A6.3,6.3,0,0,1,230.106,182.331Zm0-11.541a5.246,5.246,0,1,0,5.246,5.246A5.252,5.252,0,0,0,230.106,170.79Z" style="fill:#65aee5"></path><rect x="247.56" y="170.265" width="120.153" height="6.763" style="fill:#65aee5"></rect><rect x="247.56" y="182.244" width="5.555" height="5.555" style="fill:#65aee5"></rect><rect x="258.392" y="182.244" width="5.555" height="5.555" style="fill:#65aee5"></rect><rect x="269.223" y="182.244" width="5.555" height="5.555" style="fill:#65aee5"></rect><rect x="214.158" y="205.786" width="222.801" height="37.77" rx="4.153" style="fill:#e1dfdd"></rect><path d="M416.846,229.018a1.313,1.313,0,0,1-.76-.243,1.389,1.389,0,0,1-.566-1.371l.529-3.226-2.24-2.281a1.4,1.4,0,0,1-.325-1.432,1.348,1.348,0,0,1,1.076-.917l3.078-.467,1.381-2.923a1.331,1.331,0,0,1,2.422,0l1.38,2.923,3.078.467a1.348,1.348,0,0,1,1.076.917,1.4,1.4,0,0,1-.324,1.431l-2.242,2.282.53,3.226a1.386,1.386,0,0,1-.565,1.37,1.31,1.31,0,0,1-1.4.079l-2.746-1.508-2.749,1.509A1.309,1.309,0,0,1,416.846,229.018Zm3.383-12.589a.285.285,0,0,0-.262.178l-1.619,3.427-3.631.551a.3.3,0,0,0-.238.213.357.357,0,0,0,.079.364l2.613,2.661-.615,3.751a.343.343,0,0,0,.135.344.257.257,0,0,0,.284.016l3.255-1.786,3.252,1.786a.26.26,0,0,0,.287-.017.34.34,0,0,0,.134-.343l-.616-3.751,2.615-2.662a.354.354,0,0,0,.078-.363.3.3,0,0,0-.237-.213l-3.632-.551-1.619-3.427A.285.285,0,0,0,420.229,216.429Z" style="fill:#b3afab"></path><path d="M230.106,227.969a6.295,6.295,0,1,1,6.3-6.294A6.3,6.3,0,0,1,230.106,227.969Zm0-11.54a5.246,5.246,0,1,0,5.246,5.246A5.252,5.252,0,0,0,230.106,216.429Z" style="fill:#b3afab"></path><rect x="247.56" y="215.904" width="120.153" height="6.763" style="fill:#b3afab"></rect><rect x="247.56" y="227.883" width="5.555" height="5.555" style="fill:#b3afab"></rect><rect x="258.392" y="227.883" width="5.555" height="5.555" style="fill:#b3afab"></rect><rect x="269.223" y="227.883" width="5.555" height="5.555" style="fill:#b3afab"></rect><rect x="-0.5" y="-28.663" width="451" height="300" style="fill:none"></rect></svg>